<mxfile host="app.diagrams.net" modified="2020-08-26T11:25:31.929Z" agent="5.0 (Windows)" etag="nzZaDY_V_bJhH7GY0in-" version="13.5.8" type="github">
  <diagram id="C5RBs43oDa-KdzZeNtuy" name="Page-1">
    <mxGraphModel dx="1038" dy="547" grid="1" gridSize="10" guides="1" tooltips="1" connect="1" arrows="1" fold="1" page="1" pageScale="1" pageWidth="827" pageHeight="1169" math="0" shadow="0">
      <root>
        <mxCell id="WIyWlLk6GJQsqaUBKTNV-0" />
        <mxCell id="WIyWlLk6GJQsqaUBKTNV-1" parent="WIyWlLk6GJQsqaUBKTNV-0" />
        <mxCell id="WIyWlLk6GJQsqaUBKTNV-2" value="" style="rounded=0;html=1;jettySize=auto;orthogonalLoop=1;fontSize=11;endArrow=block;endFill=0;endSize=8;strokeWidth=1;shadow=0;labelBackgroundColor=none;edgeStyle=orthogonalEdgeStyle;" parent="WIyWlLk6GJQsqaUBKTNV-1" source="WIyWlLk6GJQsqaUBKTNV-3" target="WIyWlLk6GJQsqaUBKTNV-6" edge="1">
          <mxGeometry relative="1" as="geometry" />
        </mxCell>
        <mxCell id="WIyWlLk6GJQsqaUBKTNV-3" value="Need for recruitment Identified" style="rounded=1;whiteSpace=wrap;html=1;fontSize=12;glass=0;strokeWidth=1;shadow=0;" parent="WIyWlLk6GJQsqaUBKTNV-1" vertex="1">
          <mxGeometry x="160" y="80" width="120" height="40" as="geometry" />
        </mxCell>
        <mxCell id="WIyWlLk6GJQsqaUBKTNV-4" value="Yes" style="rounded=0;html=1;jettySize=auto;orthogonalLoop=1;fontSize=11;endArrow=block;endFill=0;endSize=8;strokeWidth=1;shadow=0;labelBackgroundColor=none;edgeStyle=orthogonalEdgeStyle;" parent="WIyWlLk6GJQsqaUBKTNV-1" source="WIyWlLk6GJQsqaUBKTNV-6" edge="1">
          <mxGeometry y="20" relative="1" as="geometry">
            <mxPoint as="offset" />
            <mxPoint x="220" y="290" as="targetPoint" />
          </mxGeometry>
        </mxCell>
        <mxCell id="2buUgK_nAZZ5S6zsy4tR-31" value="" style="edgeStyle=orthogonalEdgeStyle;rounded=0;orthogonalLoop=1;jettySize=auto;html=1;entryX=0;entryY=0.5;entryDx=0;entryDy=0;" edge="1" parent="WIyWlLk6GJQsqaUBKTNV-1" source="WIyWlLk6GJQsqaUBKTNV-6" target="2buUgK_nAZZ5S6zsy4tR-23">
          <mxGeometry relative="1" as="geometry">
            <mxPoint x="30" y="200" as="targetPoint" />
            <Array as="points">
              <mxPoint x="125" y="200" />
              <mxPoint x="125" y="1090" />
            </Array>
          </mxGeometry>
        </mxCell>
        <mxCell id="WIyWlLk6GJQsqaUBKTNV-6" value="Approval by relevant government authorities" style="rhombus;whiteSpace=wrap;html=1;shadow=0;fontFamily=Helvetica;fontSize=12;align=center;strokeWidth=1;spacing=6;spacingTop=-4;" parent="WIyWlLk6GJQsqaUBKTNV-1" vertex="1">
          <mxGeometry x="135" y="150" width="170" height="100" as="geometry" />
        </mxCell>
        <mxCell id="2buUgK_nAZZ5S6zsy4tR-29" value="" style="edgeStyle=orthogonalEdgeStyle;rounded=0;orthogonalLoop=1;jettySize=auto;html=1;" edge="1" parent="WIyWlLk6GJQsqaUBKTNV-1" source="2buUgK_nAZZ5S6zsy4tR-0" target="2buUgK_nAZZ5S6zsy4tR-3">
          <mxGeometry relative="1" as="geometry" />
        </mxCell>
        <object label="Recruitment Request by HOD" id="2buUgK_nAZZ5S6zsy4tR-0">
          <mxCell style="rounded=0;whiteSpace=wrap;html=1;" vertex="1" parent="WIyWlLk6GJQsqaUBKTNV-1">
            <mxGeometry x="155" y="290" width="120" height="60" as="geometry" />
          </mxCell>
        </object>
        <mxCell id="2buUgK_nAZZ5S6zsy4tR-7" value="" style="edgeStyle=orthogonalEdgeStyle;rounded=0;orthogonalLoop=1;jettySize=auto;html=1;" edge="1" parent="WIyWlLk6GJQsqaUBKTNV-1" source="2buUgK_nAZZ5S6zsy4tR-3" target="2buUgK_nAZZ5S6zsy4tR-6">
          <mxGeometry relative="1" as="geometry" />
        </mxCell>
        <mxCell id="2buUgK_nAZZ5S6zsy4tR-3" value="Budget Confirmed" style="rhombus;whiteSpace=wrap;html=1;" vertex="1" parent="WIyWlLk6GJQsqaUBKTNV-1">
          <mxGeometry x="365" y="275" width="130" height="90" as="geometry" />
        </mxCell>
        <mxCell id="2buUgK_nAZZ5S6zsy4tR-10" value="" style="edgeStyle=orthogonalEdgeStyle;rounded=0;orthogonalLoop=1;jettySize=auto;html=1;" edge="1" parent="WIyWlLk6GJQsqaUBKTNV-1" source="2buUgK_nAZZ5S6zsy4tR-6" target="2buUgK_nAZZ5S6zsy4tR-8">
          <mxGeometry relative="1" as="geometry" />
        </mxCell>
        <mxCell id="2buUgK_nAZZ5S6zsy4tR-6" value="CEO Recommendation Letter" style="shape=document;whiteSpace=wrap;html=1;boundedLbl=1;" vertex="1" parent="WIyWlLk6GJQsqaUBKTNV-1">
          <mxGeometry x="370" y="455" width="120" height="80" as="geometry" />
        </mxCell>
        <mxCell id="2buUgK_nAZZ5S6zsy4tR-12" value="" style="edgeStyle=orthogonalEdgeStyle;rounded=0;orthogonalLoop=1;jettySize=auto;html=1;" edge="1" parent="WIyWlLk6GJQsqaUBKTNV-1" source="2buUgK_nAZZ5S6zsy4tR-8" target="2buUgK_nAZZ5S6zsy4tR-11">
          <mxGeometry relative="1" as="geometry" />
        </mxCell>
        <mxCell id="2buUgK_nAZZ5S6zsy4tR-19" value="" style="edgeStyle=orthogonalEdgeStyle;rounded=0;orthogonalLoop=1;jettySize=auto;html=1;" edge="1" parent="WIyWlLk6GJQsqaUBKTNV-1" source="2buUgK_nAZZ5S6zsy4tR-8" target="2buUgK_nAZZ5S6zsy4tR-18">
          <mxGeometry relative="1" as="geometry" />
        </mxCell>
        <mxCell id="2buUgK_nAZZ5S6zsy4tR-8" value="CEO Approval" style="rhombus;whiteSpace=wrap;html=1;" vertex="1" parent="WIyWlLk6GJQsqaUBKTNV-1">
          <mxGeometry x="385" y="615" width="90" height="80" as="geometry" />
        </mxCell>
        <mxCell id="2buUgK_nAZZ5S6zsy4tR-14" value="" style="edgeStyle=orthogonalEdgeStyle;rounded=0;orthogonalLoop=1;jettySize=auto;html=1;" edge="1" parent="WIyWlLk6GJQsqaUBKTNV-1" source="2buUgK_nAZZ5S6zsy4tR-11" target="2buUgK_nAZZ5S6zsy4tR-13">
          <mxGeometry relative="1" as="geometry" />
        </mxCell>
        <mxCell id="2buUgK_nAZZ5S6zsy4tR-11" value="Advertise vacancy" style="whiteSpace=wrap;html=1;" vertex="1" parent="WIyWlLk6GJQsqaUBKTNV-1">
          <mxGeometry x="370" y="785" width="120" height="60" as="geometry" />
        </mxCell>
        <mxCell id="2buUgK_nAZZ5S6zsy4tR-24" value="" style="edgeStyle=orthogonalEdgeStyle;rounded=0;orthogonalLoop=1;jettySize=auto;html=1;" edge="1" parent="WIyWlLk6GJQsqaUBKTNV-1" source="2buUgK_nAZZ5S6zsy4tR-13" target="2buUgK_nAZZ5S6zsy4tR-23">
          <mxGeometry relative="1" as="geometry" />
        </mxCell>
        <mxCell id="2buUgK_nAZZ5S6zsy4tR-13" value="Receive Application" style="whiteSpace=wrap;html=1;" vertex="1" parent="WIyWlLk6GJQsqaUBKTNV-1">
          <mxGeometry x="370" y="925" width="120" height="60" as="geometry" />
        </mxCell>
        <mxCell id="2buUgK_nAZZ5S6zsy4tR-17" value="Yes" style="text;html=1;strokeColor=none;fillColor=none;align=center;verticalAlign=middle;whiteSpace=wrap;rounded=0;" vertex="1" parent="WIyWlLk6GJQsqaUBKTNV-1">
          <mxGeometry x="435" y="730" width="40" height="20" as="geometry" />
        </mxCell>
        <mxCell id="2buUgK_nAZZ5S6zsy4tR-27" value="" style="edgeStyle=orthogonalEdgeStyle;rounded=0;orthogonalLoop=1;jettySize=auto;html=1;entryX=1;entryY=0.5;entryDx=0;entryDy=0;" edge="1" parent="WIyWlLk6GJQsqaUBKTNV-1" source="2buUgK_nAZZ5S6zsy4tR-18" target="2buUgK_nAZZ5S6zsy4tR-23">
          <mxGeometry relative="1" as="geometry">
            <mxPoint x="600" y="765" as="targetPoint" />
            <Array as="points">
              <mxPoint x="600" y="1090" />
            </Array>
          </mxGeometry>
        </mxCell>
        <mxCell id="2buUgK_nAZZ5S6zsy4tR-18" value="Notify HOD" style="whiteSpace=wrap;html=1;" vertex="1" parent="WIyWlLk6GJQsqaUBKTNV-1">
          <mxGeometry x="540" y="625" width="120" height="60" as="geometry" />
        </mxCell>
        <mxCell id="2buUgK_nAZZ5S6zsy4tR-23" value="End" style="rounded=1;whiteSpace=wrap;html=1;" vertex="1" parent="WIyWlLk6GJQsqaUBKTNV-1">
          <mxGeometry x="370" y="1060" width="120" height="60" as="geometry" />
        </mxCell>
        <mxCell id="2buUgK_nAZZ5S6zsy4tR-28" value="Yes" style="text;html=1;strokeColor=none;fillColor=none;align=center;verticalAlign=middle;whiteSpace=wrap;rounded=0;" vertex="1" parent="WIyWlLk6GJQsqaUBKTNV-1">
          <mxGeometry x="436" y="400" width="40" height="20" as="geometry" />
        </mxCell>
        <mxCell id="2buUgK_nAZZ5S6zsy4tR-32" value="No" style="text;html=1;strokeColor=none;fillColor=none;align=center;verticalAlign=middle;whiteSpace=wrap;rounded=0;" vertex="1" parent="WIyWlLk6GJQsqaUBKTNV-1">
          <mxGeometry x="476" y="630" width="40" height="20" as="geometry" />
        </mxCell>
        <mxCell id="2buUgK_nAZZ5S6zsy4tR-33" value="No" style="text;html=1;strokeColor=none;fillColor=none;align=center;verticalAlign=middle;whiteSpace=wrap;rounded=0;" vertex="1" parent="WIyWlLk6GJQsqaUBKTNV-1">
          <mxGeometry x="125" y="690" width="40" height="20" as="geometry" />
        </mxCell>
        <mxCell id="2buUgK_nAZZ5S6zsy4tR-35" value="Text" style="text;html=1;strokeColor=none;fillColor=none;align=center;verticalAlign=middle;whiteSpace=wrap;rounded=0;" vertex="1" parent="WIyWlLk6GJQsqaUBKTNV-1">
          <mxGeometry x="370" y="190" width="40" height="20" as="geometry" />
        </mxCell>
        <mxCell id="2buUgK_nAZZ5S6zsy4tR-38" value="&lt;h1 style=&quot;font-size: 17px&quot;&gt;&lt;font style=&quot;font-size: 17px&quot;&gt;HR&lt;/font&gt;&lt;/h1&gt;&lt;h1 style=&quot;font-size: 17px&quot;&gt;&lt;font style=&quot;font-size: 17px&quot;&gt;&lt;b&gt;Recruitment and Selection&lt;/b&gt;&lt;/font&gt;&lt;/h1&gt;&lt;p style=&quot;font-size: 17px&quot;&gt;&lt;font style=&quot;font-size: 17px&quot;&gt;.&lt;/font&gt;&lt;/p&gt;" style="text;html=1;strokeColor=none;fillColor=none;spacing=5;spacingTop=-20;whiteSpace=wrap;overflow=hidden;rounded=0;align=center;" vertex="1" parent="WIyWlLk6GJQsqaUBKTNV-1">
          <mxGeometry x="190" y="10" width="340" height="60" as="geometry" />
        </mxCell>
      </root>
    </mxGraphModel>
  </diagram>
</mxfile>
